<svg xmlns="http://www.w3.org/2000/svg" viewBox="0 0 50.58 72.49"><path fill="#a2a2a2" d="M31.59 0H2.4A2.41 2.41 0 0 0 0 2.4v69.25a.85.85 0 0 0 .84.84h32.31a.85.85 0 0 0 .84-.84V2.4a2.41 2.41 0 0 0-2.4-2.4zm-2.78 24.94a.85.85 0 0 1-.84.84H6a.85.85 0 0 1-.84-.84V6.8A.85.85 0 0 1 6 6h22a.85.85 0 0 1 .84.84z"/><rect x="5.18" y="5.96" width="23.63" height="19.81" rx=".84" ry=".84" fill="none"/><path d="M31.8 32.91h6.5a.92.92 0 0 1 .92.92v27.31s-.3 8 5 8.63c3.27.36 5-3 4.84-5-.21-2.46-1.45-4.23-2.06-5.77a50.93 50.93 0 0 1-2.87-12.09c-.56-6.45 0-27.1 0-27.1a6.18 6.18 0 0 0-2.26-5.32 1862.2 1862.2 0 0 1-10.79-8.86" stroke="#a2a2a2" stroke-miterlimit="10" stroke-width="3" fill="none"/><path fill="#a2a2a2" d="M37.74 11.18V17a3.4 3.4 0 0 0 3.4 3.39H44l-.15-4.12-2.35-2.55z"/></svg>